<?xml version="1.0" encoding="UTF-8" standalone="no"?>
<!-- Created with Inkscape (http://www.inkscape.org/) -->

<svg
   width="21.298838mm"
   height="23.05163mm"
   viewBox="0 0 21.298837 23.051629"
   version="1.1"
   id="svg1"
   xml:space="preserve"
   xmlns="http://www.w3.org/2000/svg"
   xmlns:svg="http://www.w3.org/2000/svg"><defs
     id="defs1" /><g
     id="g1"
     transform="matrix(0.26458333,0,0,0.26458334,104.66606,-96.381388)"><g
       id="group-R5"
       transform="matrix(0.63630261,0,0,0.63630261,-767.34585,307.66163)"
       style="fill:#000000;fill-opacity:1"><path
         id="path65"
         d="m 4944.32,3601.67 c -16.73,-19.74 -35.17,-38.34 -50.76,-59.02 -29.02,-38.54 -56.87,-77.47 -83.79,-117.54 -8.56,-12.74 -17.09,-25.28 -26.27,-37.44 -0.9,0.59 -1.67,1.3 -2.62,1.83 -8.69,4.83 -18.3,5.75 -27.69,4.2 -11.3,52.76 -29.12,136.21 -33.02,152.24 0.55,0.04 1.13,0.01 1.67,0.08 20.15,2.51 31.4,19.83 31.89,38.98 0.1,4.03 -0.36,7.94 -1.06,11.76 62.6,15.82 128.56,18.44 190.32,36.46 3.07,-6.19 7.94,-11.27 13.77,-15.13 -3.95,-5.63 -8,-11.17 -12.44,-16.42 z m -284.85,8.81 c -11.81,2.75 -23.65,5.24 -34.94,8.06 -28.08,7.03 -56.46,11.71 -84.74,17.73 -17.86,3.8 -35.41,8.92 -53.08,13.59 0.69,4.7 0.87,9.64 0.43,14.75 -0.28,3.28 -0.92,6.41 -1.85,9.38 5.86,4.58 11.6,9.25 17.26,13.69 26.53,20.83 51.88,43.19 77.49,65.14 32.28,27.68 68.8,50.35 102.11,76.81 8.84,-9.71 20.98,-14.16 33.53,-14.51 -1.03,-18.33 -1.54,-36.64 -4,-53.52 -6.13,-41.85 -16.19,-84.59 -19.4,-127.25 -13.61,-3.29 -25.99,-11.36 -32.81,-23.87 z m 587.62,77.57 c -9.73,-7.24 -16.04,-17.34 -18.95,-28.4 -35.62,-2.38 -71.42,-6.69 -107.03,-7.36 -26.93,-0.49 -53.85,0.16 -80.68,2.64 -1.48,0.14 -3.01,0.38 -4.53,0.63 -0.02,0.74 0.1,1.46 0.04,2.21 -3.75,51.09 -78.71,49.03 -94.06,6.07 -1.36,-3.81 -2.01,-7.43 -2.33,-10.96 -63.2,-18.29 -131.52,-18.56 -194.42,-37.13 -6.69,10.17 -17.03,17.63 -30.45,19.69 -1.08,0.17 -2.17,0.16 -3.26,0.26 3.78,38.69 8.91,76.95 14.46,115.75 3.09,21.64 4.94,43.55 6.32,65.52 11.99,3.01 23.16,9.45 30.83,18.49 23.94,15 36.82,41.21 11.46,66.74 -10.92,10.99 -24.48,16.53 -38.21,17.69 2.5,32.59 1.15,66.4 1.92,97.58 0.7,28.47 1.18,169.46 1.53,197.93 0.02,0.99 0.05,2.02 0.07,3.03 12.48,1.3 24.41,6.74 33.17,17.36 1.49,1.8 2.73,3.72 3.84,5.7 19.74,21.09 22.35,53.12 -3.32,74.29 -19.12,15.77 -44.31,23.51 -66.78,9.88 -19.12,-11.59 -29.4,-35.28 -29.11,-57.07 0.36,-28.07 24.11,-47.02 49.36,-50.03 -1.55,-27.39 -2.66,-167.33 -3.97,-194.73 -1.62,-33.87 -1.1,-70.18 -5.22,-104.95 -33.1,-6.41 -60.4,-36.76 -44.42,-75.11 -29.27,-24.17 -61.31,-44.99 -91.17,-68.67 -23.45,-18.59 -45.41,-39.19 -68.14,-58.64 -11.36,-9.73 -23.89,-18.97 -36.19,-28.51 -9.94,12.92 -26.39,20.65 -43.14,20.98 -62.53,1.23 -73.7,-90.25 -11.21,-101.81 14.75,-2.73 27.87,0.52 37.83,8.08 11.05,5.16 18.35,13.5 22.36,23.62 19.11,-5.56 38.13,-11.51 57.47,-16.26 29.1,-7.12 58.54,-12.31 87.55,-20.03 8.54,-2.28 17.12,-5 25.73,-7.73 -2.21,-17.72 5.94,-35.99 22.78,-44.2 8.6,-4.2 18.15,-5.56 27.58,-4.83 2.76,-17.2 21.36,-103.63 32.85,-156.94 -4.17,-1.92 -8.16,-4.2 -11.79,-6.76 -33.37,-23.66 -12.2,-77.62 23.54,-75.75 1.24,-0.17 2.42,-0.46 3.71,-0.51 18.75,-0.83 37.73,12.78 44.74,29.82 5.18,12.59 4.15,27.38 -2.39,39.03 11.85,15.73 23.11,31.76 34.14,48.21 26.87,40.13 53.97,80.17 84.39,117.74 6.24,7.69 37.62,39.32 58.53,67.94 8.41,-3.17 20.1,-2.45 27.81,0.15 14.97,5.03 27.52,16.4 32.87,30.8 51.36,-8.18 139.54,-4.54 193.57,-0.13 0.47,-4.42 1.3,-8.85 2.8,-13.15 1.28,-3.66 3.07,-7.05 5.05,-10.3 -0.42,-0.37 -0.63,-1.02 -0.32,-1.62 21.71,-44.78 101.84,-11.24 96.09,34.36 -4.49,35.57 -52.86,62.1 -83.3,39.39"
         style="fill:#000000;fill-opacity:1;fill-rule:nonzero;stroke:none"
         transform="matrix(0.13333333,0,0,-0.13333333,0,666.66667)" /></g></g></svg>
