<?xml version="1.0" encoding="UTF-8" standalone="no"?>
<!-- Created with Inkscape (http://www.inkscape.org/) -->

<svg
   width="44.044243mm"
   height="26.463356mm"
   viewBox="0 0 44.044241 26.463355"
   version="1.1"
   id="svg1"
   xml:space="preserve"
   xmlns="http://www.w3.org/2000/svg"
   xmlns:svg="http://www.w3.org/2000/svg"><defs
     id="defs1" /><g
     id="g1"
     transform="matrix(0.26458333,0,0,0.26458334,88.578161,-118.2971)"><g
       id="group-R5"
       transform="matrix(0.63630261,0,0,0.63630261,-767.34585,307.66163)"
       style="fill:#000000;fill-opacity:1"><path
         id="path186"
         d="m 5887.65,2406.32 c -15.16,-25.7 -35.95,-46.32 -53.99,-69.3 8.63,61.6 3.32,126.83 3.22,188.57 -0.05,36.19 -0.11,72.38 -0.16,108.58 -0.03,16.38 -0.06,32.76 -0.28,49.15 -0.2,14.48 -2.54,26.35 -4.99,39.35 18.67,-15.75 34.87,-35.36 49.46,-54.51 0.95,-1.24 3.5,-0.57 2.78,1.17 -10.43,25.1 -21.58,47.43 -41,65.39 145.35,-0.11 290.69,-0.15 436.03,0.09 -18.51,-20.15 -36.12,-41.12 -53.12,-62.14 -51.57,-63.75 -98.58,-131.1 -152.09,-193.3 -48.17,-55.97 -103.91,-110.5 -174.03,-137.41 -16.28,-6.25 -32.8,-10.29 -49.4,-12.56 17.01,23.1 30.72,49.94 40.21,75.81 0.58,1.57 -1.83,2.49 -2.64,1.11 z m -559.71,-85.3 c 2.52,1.99 4.98,3.99 7.32,6.05 6.83,6.01 25.47,21.15 21.39,32.16 -0.21,0.56 -0.76,0.98 -1.4,0.79 -10.24,-3.05 -20.65,-17.31 -28.84,-24.09 -5.71,-4.73 -11.5,-9.87 -17.43,-14.91 -5.8,-0.01 -11.61,0 -17.41,-0.01 0.13,17.32 -0.34,34.69 -0.38,51.89 0.06,120.72 0.07,241.43 0.11,362.14 43.18,0.02 86.36,0 129.54,-0.01 32.1,-175.3 118.52,-342.82 295.14,-407.32 6.75,-2.47 13.56,-4.59 20.38,-6.55 -136.15,-0.03 -272.28,-0.03 -408.42,-0.14 z m 491.35,413.72 c -9.41,-18.99 -22.57,-37.83 -24.38,-59.15 -0.36,-4.3 5.37,-4.95 7.42,-2.01 7.7,11.01 14.4,22.93 20.96,34.89 -0.88,-4.83 -1.61,-9.77 -1.81,-15.34 -0.69,-19.63 -0.38,-39.33 -0.41,-58.96 -0.04,-36.2 -0.1,-72.39 -0.16,-108.58 -0.1,-65.02 -6.17,-133.96 4.54,-198.4 -0.36,-0.01 -0.71,0.02 -1.07,0.01 -4.82,6.68 -9.64,13.34 -14.67,19.88 -7.45,9.71 -13.39,22.03 -22.78,29.88 -1.37,1.16 -3.12,0.35 -3.33,-1.37 -2.09,-17.24 12.74,-32.94 24.11,-48.25 -48.91,1.88 -97.39,17.66 -141.5,40.8 -85.37,44.79 -145.07,123.44 -182.96,210.4 -21.83,50.12 -37.21,102.66 -48.01,156.49 128.01,-0.04 256.03,-0.19 384.05,-0.29 z m 637.78,-420.04 c -3.94,0.11 -7.88,0.22 -11.82,0.34 -0.43,0.22 -0.9,0.38 -1.51,0.38 -161.98,7.63 44.75,5.94 -117.36,5.94 -165.75,0 -61.74,-0.04 -227.49,-0.07 -69.5,-0.01 -138.99,-0.07 -208.48,-0.07 11.72,3.47 23.33,7.7 34.74,12.82 66.77,30.01 120.31,85.25 167.05,140.1 69.88,82.01 130.4,181.34 207.33,260.7 233.68,0.44 467.35,1.7 701.01,4.81 -17.77,-16.36 -35.18,-33.07 -52.97,-49.4 -1.61,-1.48 0.45,-3.94 2.27,-2.95 25.61,13.96 51.29,27.77 71.6,49.09 1.11,1.16 1.69,2.57 2.03,4.03 0.61,0.45 1.04,1.08 1.03,1.84 0.01,0.76 -0.41,1.39 -1.03,1.84 -0.47,2.12 -1.63,4.11 -3.72,5.33 -19.05,11.22 -54.51,19.99 -66.07,40.35 -0.82,1.44 -3.17,0.82 -3.13,-0.85 0.49,-22.09 23.34,-33.63 43.34,-43.97 -226.48,2.97 -452.96,4.23 -679.48,4.69 29.99,29.06 62.51,54.99 99.11,75.58 87.92,49.48 195.19,43.03 291.59,28.74 2.09,-0.3 3.05,2.79 0.9,3.25 -107.35,22.37 -218.61,32.3 -315.44,-26.88 -36.16,-22.1 -68.17,-50.13 -97.71,-80.65 -286.8,0.52 -573.61,-0.11 -860.41,-0.2 -26.09,141.47 -20.95,291.39 -12.5,431.27 3.05,50.51 7.12,100.98 9.95,151.5 0.07,1.13 -1.82,1.41 -1.99,0.27 -28.33,-187.94 -40.28,-384.27 -11.28,-572.76 0.53,-3.43 1.11,-6.85 1.68,-10.28 -42.33,-0.01 -84.67,-0.03 -127.01,-0.01 0.06,189.7 0.12,379.39 0.16,569.09 10.46,-21.48 26.19,-40.18 39.38,-60.45 1,-1.53 3.35,-0.56 2.93,1.23 -7.61,32.92 -28.62,59.28 -37.66,91.57 -1.47,5.28 -8.46,7.37 -12.41,3.37 -0.5,0.08 -0.98,0.25 -1.47,0.25 -4.62,0 -9.25,-2.98 -9.24,-8.94 v -3.82 c -8.52,-10.89 -16.09,-22.72 -23.5,-34.13 -7.27,-11.2 -20.6,-27.84 -18.05,-42.28 0.08,-0.51 0.79,-0.76 1.2,-0.49 10.87,7.03 17.83,21.24 24.97,31.61 4.98,7.24 10.06,14.76 15.39,22.09 0.04,-189.69 0.1,-379.39 0.15,-569.08 -29.45,0.02 -58.91,0.02 -88.37,0.07 -1.91,0.01 -3.82,0.02 -5.74,0.03 -0.06,0 -0.09,0.03 -0.15,0.03 -2.22,0 -4.45,0.01 -6.66,0.01 -0.05,0 -0.07,-0.02 -0.12,-0.02 l -16.55,-0.03 c -4.73,0 -7.09,-3.66 -7.09,-7.33 0,-3.67 2.36,-7.33 7.09,-7.33 l 16.55,-0.03 c 0.05,0 0.07,-0.02 0.12,-0.02 2.21,0 4.44,0.01 6.66,0.01 0.06,0 0.09,0.03 0.15,0.03 1.92,0.01 3.83,0.03 5.74,0.04 29.46,0.04 58.92,0.04 88.37,0.06 0.04,-121.41 0.05,-242.82 0.11,-364.24 -0.04,-16.58 -0.24,-33.19 -0.08,-49.78 -52.83,-0.06 -105.66,-0.04 -158.49,-0.14 -5.56,0.01 -8.33,-4.3 -8.32,-8.6 -0.01,-4.31 2.76,-8.62 8.32,-8.61 52.96,-0.1 105.93,-0.08 158.89,-0.13 0.13,-3.97 0.23,-7.93 0.44,-11.9 1.37,-24.93 5.48,-49.67 6.17,-74.63 -0.04,-1.35 0.99,-1.98 2.04,-1.95 1.04,-0.03 2.08,0.6 2.04,1.95 0.58,21.48 3.26,42.92 5.36,64.32 33.32,-12.08 66.46,-25.21 98.35,-40.61 1.73,-0.83 3.83,1.42 2.18,2.83 -27.67,23.57 -58.46,42.66 -93.26,52.88 2.64,2.44 5.38,4.8 8.22,7.1 166.43,-0.17 332.89,-0.16 499.33,-0.18 -21.65,-20.72 -45.71,-39.58 -63.47,-63.67 -0.74,-1 0.48,-2.57 1.63,-2.13 33.21,12.83 55.88,43.43 83.95,63.97 0.73,0.53 1.34,1.16 1.89,1.82 86.82,-0.02 173.66,-0.09 260.49,-0.1 165.76,-0.03 61.74,-0.07 227.5,-0.07 165.42,0 -37.98,-1.84 127.3,5.94 0.61,0 1.08,0.16 1.51,0.38 3.94,0.12 7.88,0.23 11.82,0.34 1.61,-0.04 2.37,1.21 2.34,2.45 0.03,1.24 -0.73,2.49 -2.34,2.44"
         style="fill:#000000;fill-opacity:1;fill-rule:nonzero;stroke:none"
         transform="matrix(0.13333333,0,0,-0.13333333,0,666.66667)" /><path
         id="path187"
         d="m 5218.71,2819.82 c -5.2,-12.11 -19.55,-17.93 -28.29,-5.79 -1.04,1.43 -1.76,3.16 -2.61,4.77 -1.05,7.43 -2.86,14.76 -3.65,22.23 -1.57,14.97 2.41,46.4 25.63,34.15 16.78,-8.87 15.08,-41.02 8.92,-55.36 z m 12.53,55.13 c -12.07,25.59 -50.53,24.63 -60.33,-2.16 -5.28,-14.45 -3.9,-29.96 -1.5,-44.85 2.42,-15 10.09,-24.25 17.96,-36.57 1.04,-1.62 3.87,-0.6 3.22,1.36 -0.66,1.94 -1.03,3.84 -1.29,5.74 6,-6.11 14.35,-7.97 25.68,-1.11 26.47,16.02 28.66,51.31 16.26,77.59"
         style="fill:#000000;fill-opacity:1;fill-rule:nonzero;stroke:none"
         transform="matrix(0.13333333,0,0,-0.13333333,0,666.66667)" /><path
         id="path188"
         d="m 5941.59,2525.8 c -9.6,19.61 -16.05,40.03 -19.5,61.59 -0.93,5.78 -9.89,6.6 -12.38,1.62 -10.19,-20.33 -25.31,-40.23 -30.65,-62.55 -0.71,-2.99 3.23,-5.82 5.49,-3.18 10.79,12.57 19.83,27.42 28.02,42.32 2.86,-12.03 6.82,-23.67 11.68,-35.08 -5.95,0.28 -11.93,0.12 -17.91,-0.19 -6.97,-0.35 -15.87,0.09 -19.84,-6.66 -0.46,-0.8 -0.55,-2.01 0,-2.82 4.01,-5.62 10.16,-5.13 16.58,-4.7 10.07,0.67 20.66,1.43 30.62,-0.63 6.19,-1.29 10.65,4.64 7.89,10.28"
         style="fill:#000000;fill-opacity:1;fill-rule:nonzero;stroke:none"
         transform="matrix(0.13333333,0,0,-0.13333333,0,666.66667)" /><path
         id="path189"
         d="m 5998.45,2496.49 c -6.36,-10.63 -12.21,-10.61 -12.25,3.13 -0.04,11.82 9.91,22.17 19.37,31.14 0.47,-4.45 0.79,-8.91 0.75,-13.4 -0.07,-8.01 -3.94,-14.28 -7.87,-20.87 z m 49.37,76.85 c -10.72,-9.13 -23.2,-15.63 -35.12,-22.86 -2.06,9.28 -4.48,18.29 -5.93,26.37 -0.98,5.44 -9.04,3.82 -9.26,-1.26 -0.42,-9.69 -3.03,-22.05 -14.91,-22.61 -12.71,-0.59 -14.33,17.42 -14.7,25.95 -0.12,2.66 -3.79,3.16 -4.6,0.62 -4.75,-14.91 0.69,-33.09 18.08,-35.56 9.72,-1.38 16.11,3.84 20.12,11.1 0.72,-3.49 1.41,-6.99 2.04,-10.5 -6.06,-4.16 -11.83,-8.73 -16.87,-14.32 -11.25,-12.49 -18.86,-37.2 -4.98,-51.07 12.25,-12.26 25.08,12.11 29.5,20.39 6.32,11.83 5.98,25.97 3.62,40.1 0.53,0.55 1.14,1.13 1.64,1.66 10.12,10.98 23.24,18.95 33.52,29.83 1.37,1.45 -0.67,3.42 -2.15,2.16"
         style="fill:#000000;fill-opacity:1;fill-rule:nonzero;stroke:none"
         transform="matrix(0.13333333,0,0,-0.13333333,0,666.66667)" /><path
         id="path190"
         d="m 7058.03,2653.75 c -3.61,-1.79 -7.99,-2.5 -11.88,-4.51 -4.88,-2.51 -9.46,-6.08 -13.89,-9.57 -5.93,8.05 -13.16,15.03 -22.53,18.93 -2.59,1.08 -4.9,-2.44 -3.53,-4.59 4.94,-7.77 10.47,-15.11 15.64,-22.72 -10.82,-8.62 -21.22,-17.94 -30.61,-28.03 -0.88,-0.96 -0.03,-2.89 1.37,-2.36 12.57,4.86 24.71,12.23 35.58,20.4 4.51,-8.68 7.93,-18.99 16.27,-24.26 1.26,-0.8 2.77,0.02 3.22,1.3 3.71,10.62 -3.32,22.25 -8.89,31.37 3.87,3.16 7.75,6.29 11.57,9.5 4.05,3.42 6.19,8.57 9.76,11.83 1.51,1.39 -0.4,3.54 -2.08,2.71"
         style="fill:#000000;fill-opacity:1;fill-rule:nonzero;stroke:none"
         transform="matrix(0.13333333,0,0,-0.13333333,0,666.66667)" /><path
         id="path191"
         d="m 5155.24,3198.46 c -0.33,-8.37 -4.19,-30.6 -12.05,-9.86 -5.29,13.98 5.36,33.94 11.25,45.95 0.02,0.05 0.05,0.09 0.08,0.14 0.78,-12.07 1.2,-24.17 0.72,-36.23 z m 38.5,118.2 c -10.03,-15.52 -21.45,-29.73 -32.11,-44.38 -2.05,13.08 -3.97,26.32 -4.4,39.09 1.45,6.86 1.74,14.1 0.92,20.89 -0.72,6.01 -10.63,8.78 -11.65,1.58 -0.06,-0.52 -0.08,-1.06 -0.14,-1.59 -0.02,0.01 -0.04,0.01 -0.06,0.01 0.01,-0.11 0.02,-0.23 0.03,-0.34 -0.64,-5.66 -0.64,-11.48 -0.23,-17.37 -1.81,-11.44 -7.55,-21.64 -20.95,-23.09 -21.93,-2.37 -18.43,27.69 -16.94,40.8 0.3,2.59 -3.88,3.7 -4.95,1.34 -8.14,-18.02 -8,-51.23 18.82,-52.85 11.98,-0.73 20.71,4.04 26.65,11.54 0.65,-4.5 1.26,-8.94 1.72,-13.24 0.69,-6.59 1.41,-13.2 2.06,-19.81 -7.81,-11.76 -14.77,-24.12 -19.82,-37.94 -5.3,-14.47 -5.36,-61.79 22.52,-53.27 19.84,6.07 11.97,55.06 11.08,68.55 -0.36,5.44 -1.05,11.1 -1.84,16.83 11.36,20.2 23.97,39.93 32.92,61.12 1.04,2.44 -2.12,4.47 -3.63,2.13"
         style="fill:#000000;fill-opacity:1;fill-rule:nonzero;stroke:none"
         transform="matrix(0.13333333,0,0,-0.13333333,0,666.66667)" /><path
         id="path192"
         d="m 5448.89,2206.75 c -0.99,-0.04 -1.86,-0.43 -2.58,-1.01 7.13,10.08 13.37,20.73 20.34,30.95 3.67,-10.85 9.47,-20.36 16.79,-29.19 -11.54,-0.18 -23.12,-0.32 -34.55,-0.75 z m 50.56,-0.6 c -12.66,12.82 -21.91,26.26 -25.42,44.19 -0.99,5.08 -7.25,4.52 -9.74,1.28 -12.41,-16.15 -19.92,-33.5 -27.29,-52.18 -0.7,-1.79 2.05,-3.38 3.26,-1.89 1.62,1.97 3.04,4.09 4.53,6.14 -0.81,-1.91 -0.48,-4.22 1.83,-5.31 14.57,-6.91 33.4,-1.91 48.94,-1.63 4.79,0.08 7.31,5.95 3.89,9.4"
         style="fill:#000000;fill-opacity:1;fill-rule:nonzero;stroke:none"
         transform="matrix(0.13333333,0,0,-0.13333333,0,666.66667)" /><path
         id="path193"
         d="m 5610.98,2202.99 c -5.54,-7.54 -14.95,-19.32 -22.22,-8.96 -5.04,7.18 -8.5,15.59 -11.87,23.83 1.93,2.41 3.84,4.84 5.76,7.31 9.82,12.63 20.29,25.33 28.02,39.37 1.21,2.19 -1.47,3.91 -3.25,2.51 -12.36,-9.72 -22.22,-22.35 -32.29,-34.37 -1.01,-1.21 -2,-2.42 -2.99,-3.63 -5.64,12.41 -20.59,41.73 -34.8,28.08 -1.22,-1.16 -0.58,-3.19 0.97,-3.65 13.91,-4.14 21.22,-18.24 26.99,-32.88 -6.76,-8.61 -13.01,-17.5 -17.62,-27.63 -0.54,-1.17 0.63,-2.78 1.92,-1.93 7.7,5.14 14.08,11.4 20.01,18.14 1.94,-5.25 3.87,-10.26 6,-14.54 3.91,-7.83 9.58,-16.64 19.18,-17.15 13.01,-0.68 15.91,15.54 18.83,24.38 0.55,1.67 -1.74,2.35 -2.64,1.12"
         style="fill:#000000;fill-opacity:1;fill-rule:nonzero;stroke:none"
         transform="matrix(0.13333333,0,0,-0.13333333,0,666.66667)" /></g></g></svg>
